<svg class="h-8 w-16" width="35" height="24" viewBox="0 0 35 24" fill="none" xmlns="http://www.w3.org/2000/svg"><g clip-path="url(#clip0_94_108)"><path d="M26.5286 16.0621C26.7455 16.0055 26.9672 16.1356 27.0236 16.3525C27.0802 16.5695 26.9501 16.7912 26.7331 16.8476C26.5162 16.9042 26.2944 16.774 26.2381 16.5571C26.1815 16.3402 26.3116 16.1184 26.5286 16.0621Z" fill="#F5AA6A"></path><path d="M28.0837 13.6427C28.5365 13.523 28.9992 13.7984 29.1173 14.2578C29.2353 14.7173 28.9639 15.1867 28.5111 15.3065C28.0583 15.4262 27.5956 15.1507 27.4775 14.6914C27.3595 14.232 27.6309 13.7625 28.0837 13.6429V13.6427Z" fill="#F5AA6A"></path></g><path fill-rule="evenodd" clip-rule="evenodd" d="M12.4329 3.44835L17.4362 15.2052L15.4448 2.55645C19.9198 2.01556 24.2517 4.78652 25.5339 9.25817C26.2677 11.8171 25.8593 14.433 24.6108 16.5611L20.368 6.59129L22.3475 19.1641C21.4199 19.8977 20.3366 20.4662 19.1293 20.8124C17.9822 21.1413 16.8237 21.2407 15.7027 21.1379L10.6937 9.3675L12.3991 20.1992C10.132 19.0723 8.32791 17.0332 7.57508 14.4078C6.30832 9.99006 8.44547 5.40267 12.4329 3.44835Z" fill="#F85666"></path><g clip-path="url(#clip1_94_108)"><path d="M5.78471 11.8837C4.83058 12.0535 4.6872 12.1949 4.50558 13.1465C4.39061 12.4942 4.2882 12.2193 3.92923 12.0538C3.76456 11.9782 3.54529 11.9249 3.2454 11.868C4.19861 11.6996 4.34199 11.5583 4.52245 10.6069C4.6086 11.0813 4.6829 11.3549 4.85803 11.5323C5.03366 11.7121 5.30615 11.7941 5.78471 11.8837Z" fill="#F5AA6A"></path></g><path d="M7.24354 13.6464C7.27061 13.6355 7.29134 13.6439 7.26541 13.6552C5.04649 14.6245 3.80443 15.369 4.07781 15.6515C4.61339 16.2052 10.7648 14.7754 17.8179 12.4578C24.8707 10.1402 30.1542 7.81256 29.6187 7.25888C29.3455 6.97631 27.6098 7.21023 25.0383 7.81507C25.0082 7.82215 25.0067 7.80752 25.0367 7.79963C29.6968 6.5689 33.0105 5.99903 33.4434 6.44659C34.1257 7.15206 27.3947 10.1174 18.4095 13.0699C9.42442 16.0224 1.5876 17.8439 0.905358 17.1385C0.472471 16.6909 3.02468 15.3332 7.24354 13.6464Z" fill="#F5AA6A"></path><defs><clipPath id="clip0_94_108"><rect width="2.92312" height="3.24791" fill="white" transform="translate(26.2256 13.6143)"></rect></clipPath><clipPath id="clip1_94_108"><rect width="2.48206" height="2.48206" fill="white" transform="translate(3.04419 10.9141) rotate(-11.8411)"></rect></clipPath></defs></svg>